<svg id="svg" version="1.1" xmlns="http://www.w3.org/2000/svg" xmlns:xlink="http://www.w3.org/1999/xlink" width="400" height="641.025641025641" viewBox="0, 0, 400,641.025641025641"><g id="svgg"><path id="path0" d="M345.600 24.000 C 345.094 24.660,344.427 25.200,344.117 25.200 C 343.806 25.200,343.664 25.380,343.800 25.600 C 343.936 25.820,343.797 26.000,343.491 26.000 C 343.185 26.000,342.692 26.455,342.394 27.011 C 342.097 27.567,341.436 28.126,340.927 28.254 C 340.417 28.382,340.000 28.767,340.000 29.110 C 340.000 29.453,339.891 29.624,339.757 29.491 C 339.490 29.223,339.230 29.420,336.568 31.900 C 335.564 32.835,334.576 33.600,334.371 33.600 C 333.758 33.600,332.353 35.200,332.606 35.610 C 332.741 35.829,332.548 35.878,332.151 35.726 C 331.616 35.521,331.521 35.616,331.726 36.151 C 331.872 36.531,331.827 36.741,331.628 36.617 C 331.428 36.494,330.993 36.664,330.661 36.996 C 330.329 37.328,329.892 37.600,329.691 37.600 C 329.134 37.600,327.961 39.027,328.266 39.332 C 328.413 39.480,328.325 39.600,328.070 39.600 C 327.815 39.600,327.110 40.095,326.503 40.700 C 325.897 41.305,325.175 41.845,324.900 41.900 C 324.625 41.955,323.680 42.720,322.800 43.600 C 321.920 44.480,321.020 45.200,320.800 45.200 C 320.580 45.200,320.400 45.481,320.400 45.824 C 320.400 46.167,320.226 46.340,320.013 46.208 C 319.800 46.077,319.397 46.336,319.117 46.784 C 318.837 47.233,318.457 47.600,318.272 47.600 C 318.088 47.600,317.243 48.301,316.394 49.159 C 315.545 50.016,314.734 50.601,314.592 50.459 C 314.450 50.316,314.377 50.380,314.430 50.600 C 314.588 51.253,313.945 52.413,313.558 52.174 C 313.361 52.052,313.200 52.154,313.200 52.400 C 313.200 52.646,313.019 52.735,312.797 52.598 C 312.576 52.461,312.289 52.624,312.160 52.959 C 312.031 53.295,311.538 53.692,311.063 53.842 C 309.959 54.191,308.740 55.580,309.070 56.113 C 309.213 56.344,309.128 56.403,308.876 56.247 C 308.436 55.975,307.962 56.303,305.593 58.514 C 304.937 59.126,304.400 59.550,304.400 59.455 C 304.400 59.360,303.719 59.939,302.888 60.741 C 302.056 61.544,301.454 62.363,301.550 62.562 C 301.645 62.761,301.532 62.805,301.298 62.660 C 301.063 62.516,300.253 62.998,299.497 63.732 C 298.740 64.467,297.817 65.185,297.444 65.328 C 297.071 65.471,296.528 66.156,296.236 66.851 C 295.943 67.545,295.632 67.895,295.542 67.627 C 295.350 67.050,293.504 68.630,293.081 69.734 C 292.929 70.128,292.627 70.340,292.408 70.205 C 291.907 69.895,288.735 72.990,289.118 73.415 C 289.273 73.587,289.173 73.598,288.896 73.438 C 288.592 73.263,287.916 73.623,287.196 74.343 C 286.538 75.000,286.000 75.462,286.000 75.369 C 286.000 75.276,285.666 75.515,285.257 75.900 C 284.849 76.285,284.534 76.780,284.557 77.000 C 284.581 77.220,284.285 77.375,283.900 77.344 C 283.515 77.314,283.200 77.414,283.200 77.568 C 283.200 77.721,282.917 78.196,282.570 78.624 C 282.224 79.051,282.057 79.130,282.200 78.800 C 282.370 78.407,282.261 78.442,281.886 78.900 C 281.570 79.285,281.119 79.600,280.883 79.600 C 280.647 79.600,280.346 79.941,280.214 80.357 C 280.082 80.773,279.601 81.211,279.147 81.330 C 278.692 81.449,278.438 81.738,278.583 81.973 C 278.738 82.224,278.502 82.400,278.011 82.400 C 277.517 82.400,277.026 82.769,276.812 83.300 C 276.613 83.795,276.439 84.033,276.425 83.828 C 276.411 83.623,275.860 84.061,275.200 84.800 C 274.540 85.539,274.000 86.015,274.000 85.858 C 274.000 85.701,273.493 86.074,272.873 86.686 C 272.253 87.299,271.363 88.058,270.895 88.373 C 270.426 88.688,270.152 89.138,270.286 89.373 C 270.419 89.608,270.386 89.671,270.212 89.514 C 270.037 89.357,269.534 89.421,269.093 89.657 C 268.448 90.003,268.400 90.154,268.846 90.437 C 269.298 90.723,269.282 90.789,268.761 90.794 C 268.410 90.797,267.690 91.181,267.161 91.646 C 266.633 92.111,265.795 92.762,265.300 93.092 C 264.805 93.422,264.400 93.956,264.400 94.279 C 264.400 94.602,264.175 94.790,263.900 94.696 C 263.266 94.479,261.932 95.966,262.270 96.513 C 262.410 96.740,262.329 96.803,262.089 96.655 C 261.850 96.507,261.372 96.790,261.027 97.282 C 260.682 97.775,260.400 98.014,260.400 97.814 C 260.400 97.613,260.046 97.829,259.614 98.293 C 259.181 98.758,258.470 99.251,258.034 99.389 C 257.552 99.542,257.328 99.868,257.463 100.220 C 257.615 100.617,257.411 100.800,256.819 100.800 C 256.343 100.800,256.064 100.980,256.200 101.200 C 256.336 101.420,256.077 101.600,255.624 101.600 C 255.171 101.600,254.800 101.791,254.800 102.024 C 254.800 102.257,255.008 102.319,255.262 102.162 C 255.557 101.979,255.615 102.053,255.421 102.365 C 255.255 102.634,254.873 102.760,254.572 102.645 C 254.272 102.529,253.902 102.635,253.751 102.879 C 253.585 103.148,253.659 103.211,253.938 103.038 C 254.192 102.881,254.400 102.943,254.400 103.176 C 254.400 103.409,254.046 103.600,253.614 103.600 C 253.182 103.600,252.634 103.963,252.397 104.406 C 252.160 104.849,251.388 105.482,250.683 105.812 C 249.977 106.142,249.715 106.325,250.100 106.218 C 251.302 105.886,250.864 106.419,249.561 106.873 C 248.653 107.190,248.466 107.396,248.861 107.646 C 249.383 107.977,248.854 108.198,247.900 108.047 C 247.735 108.021,247.600 108.156,247.600 108.347 C 247.600 108.538,246.865 109.180,245.968 109.774 C 244.929 110.461,244.415 111.063,244.555 111.427 C 244.676 111.742,244.601 112.022,244.387 112.050 C 244.174 112.078,243.813 112.123,243.585 112.150 C 243.357 112.178,243.042 112.394,242.885 112.630 C 242.728 112.867,242.025 113.395,241.322 113.804 C 240.619 114.212,240.134 114.694,240.245 114.873 C 240.356 115.053,240.263 115.200,240.037 115.200 C 239.812 115.200,239.075 115.740,238.400 116.400 C 237.725 117.060,236.999 117.600,236.786 117.600 C 236.574 117.600,236.400 117.870,236.400 118.200 C 236.400 118.530,236.265 118.779,236.100 118.753 C 235.147 118.602,234.617 118.823,235.138 119.153 C 235.537 119.406,235.415 119.560,234.665 119.748 C 234.108 119.888,233.545 120.344,233.412 120.761 C 233.280 121.179,232.728 121.632,232.186 121.768 C 231.644 121.904,231.200 122.292,231.200 122.631 C 231.200 122.970,231.043 123.150,230.850 123.031 C 230.658 122.912,230.163 123.275,229.750 123.838 C 229.338 124.401,228.550 125.100,228.000 125.392 C 226.619 126.126,225.168 127.435,225.437 127.704 C 225.560 127.827,225.296 128.043,224.851 128.184 C 224.405 128.325,223.935 128.774,223.806 129.181 C 223.677 129.588,223.092 130.041,222.507 130.188 C 221.670 130.398,221.566 130.534,222.021 130.821 C 222.497 131.123,222.473 131.189,221.883 131.194 C 221.489 131.197,220.780 131.560,220.308 132.000 C 219.836 132.440,219.586 132.800,219.753 132.800 C 219.920 132.800,219.784 133.073,219.450 133.407 C 219.116 133.741,218.608 133.966,218.321 133.907 C 218.035 133.848,217.849 134.038,217.910 134.330 C 217.970 134.621,217.869 134.766,217.685 134.653 C 217.256 134.387,214.400 136.913,214.400 137.559 C 214.400 137.828,214.249 137.954,214.065 137.840 C 213.590 137.547,211.940 138.779,212.214 139.223 C 212.340 139.427,212.121 139.476,211.721 139.332 C 211.324 139.189,211.126 139.213,211.281 139.384 C 211.609 139.747,210.955 140.475,209.692 141.151 C 209.201 141.413,208.786 141.937,208.768 142.314 C 208.747 142.770,208.666 142.824,208.527 142.476 C 208.264 141.819,206.800 143.015,206.800 143.886 C 206.800 144.194,206.652 144.356,206.471 144.244 C 206.035 143.974,204.790 145.448,205.133 145.830 C 205.280 145.994,205.102 146.021,204.738 145.891 C 204.039 145.641,202.800 146.705,202.800 147.555 C 202.800 147.826,202.647 147.953,202.461 147.837 C 202.071 147.597,200.400 149.038,200.400 149.616 C 200.400 149.827,200.242 149.955,200.048 149.900 C 199.478 149.738,197.156 151.605,197.412 152.020 C 197.542 152.229,197.407 152.400,197.113 152.400 C 196.512 152.400,195.200 153.787,195.200 154.422 C 195.200 154.649,194.975 154.806,194.700 154.770 C 193.641 154.633,193.285 154.830,193.063 155.683 C 192.936 156.168,192.712 156.445,192.565 156.299 C 192.419 156.152,191.737 156.566,191.049 157.219 C 190.362 157.871,189.100 158.944,188.245 159.602 C 187.390 160.261,186.818 160.800,186.974 160.800 C 187.130 160.800,186.987 161.070,186.657 161.400 C 186.327 161.730,185.764 162.000,185.405 162.000 C 185.046 162.000,184.864 162.180,185.000 162.400 C 185.136 162.620,185.057 162.800,184.824 162.800 C 184.591 162.800,184.400 163.081,184.400 163.424 C 184.400 163.767,184.219 163.935,183.997 163.798 C 183.775 163.661,183.009 164.146,182.294 164.875 C 181.579 165.604,180.635 166.408,180.197 166.663 C 179.759 166.917,179.449 167.336,179.510 167.593 C 179.570 167.849,179.436 167.946,179.212 167.807 C 178.987 167.668,178.377 168.015,177.856 168.577 C 177.335 169.140,176.785 169.600,176.635 169.600 C 176.243 169.600,174.400 171.647,174.400 172.082 C 174.400 172.283,174.239 172.348,174.042 172.226 C 173.845 172.104,173.581 172.274,173.454 172.602 C 173.328 172.931,172.981 173.200,172.682 173.200 C 171.935 173.200,170.322 174.982,170.696 175.394 C 170.863 175.578,170.777 175.600,170.505 175.444 C 169.972 175.137,168.672 176.197,168.298 177.243 C 168.172 177.597,167.501 178.000,166.808 178.138 C 166.114 178.277,165.648 178.554,165.771 178.753 C 165.895 178.953,165.715 179.224,165.372 179.355 C 165.030 179.487,164.864 179.780,165.004 180.007 C 165.145 180.234,165.111 180.374,164.930 180.317 C 164.748 180.261,164.240 180.528,163.800 180.910 C 163.360 181.293,162.820 181.645,162.600 181.693 C 161.930 181.837,160.800 182.948,160.800 183.462 C 160.800 183.728,160.440 184.060,160.000 184.200 C 159.559 184.340,159.013 184.802,158.786 185.227 C 158.558 185.652,158.063 186.003,157.686 186.006 C 157.097 186.011,157.085 186.067,157.600 186.400 C 158.169 186.768,157.423 187.025,156.300 186.847 C 156.135 186.821,155.995 187.025,155.989 187.300 C 155.983 187.575,155.358 188.250,154.600 188.800 C 153.842 189.350,153.217 190.025,153.211 190.300 C 153.205 190.575,152.936 190.800,152.613 190.800 C 152.290 190.800,151.738 191.295,151.387 191.900 C 151.002 192.564,150.840 192.683,150.978 192.200 C 151.150 191.597,150.920 191.710,150.044 192.660 C 149.406 193.353,148.502 194.041,148.036 194.189 C 147.570 194.337,147.292 194.625,147.418 194.829 C 147.544 195.033,147.407 195.200,147.113 195.200 C 146.474 195.200,145.166 196.632,145.500 196.966 C 145.628 197.095,145.440 197.200,145.081 197.200 C 144.722 197.200,144.236 197.558,144.002 197.996 C 143.768 198.434,143.446 198.773,143.288 198.749 C 142.254 198.593,141.810 198.819,142.400 199.200 C 142.911 199.530,142.894 199.589,142.287 199.594 C 141.896 199.597,141.471 199.870,141.345 200.200 C 141.218 200.530,140.853 200.800,140.534 200.800 C 140.214 200.800,140.064 200.980,140.200 201.200 C 140.336 201.420,140.167 201.600,139.824 201.600 C 139.481 201.600,139.200 201.881,139.200 202.224 C 139.200 202.567,139.043 202.750,138.852 202.632 C 138.385 202.343,136.400 204.082,136.400 204.779 C 136.400 205.084,136.286 205.220,136.147 205.081 C 135.672 204.606,134.329 205.638,134.578 206.287 C 134.778 206.807,134.715 206.828,134.209 206.408 C 133.712 205.995,133.600 206.007,133.600 206.474 C 133.600 206.789,132.891 207.576,132.025 208.223 C 131.158 208.870,130.348 209.760,130.225 210.200 C 130.065 210.769,129.908 210.858,129.682 210.509 C 129.458 210.163,128.863 210.549,127.678 211.809 C 126.751 212.794,125.814 213.600,125.597 213.600 C 125.338 213.600,125.167 181.843,125.101 121.500 L 125.000 29.400 114.700 29.293 C 106.598 29.209,104.400 29.295,104.398 29.693 C 104.398 29.972,104.398 75.545,104.400 130.967 L 104.403 231.733 101.807 234.267 C 100.379 235.660,99.028 236.800,98.805 236.800 C 98.582 236.800,98.400 237.160,98.400 237.600 C 98.400 238.040,98.209 238.400,97.976 238.400 C 97.743 238.400,97.675 238.202,97.825 237.960 C 98.479 236.902,96.397 238.545,93.300 241.531 C 91.485 243.281,90.000 244.630,90.000 244.528 C 90.000 244.426,89.736 244.581,89.413 244.871 C 89.089 245.162,88.254 245.850,87.555 246.400 C 86.856 246.950,85.765 247.895,85.129 248.500 C 84.493 249.105,83.881 249.600,83.769 249.600 C 83.349 249.600,82.359 250.534,79.990 253.167 C 79.116 254.138,78.400 254.807,78.400 254.652 C 78.400 254.498,78.040 254.565,77.600 254.800 C 77.160 255.035,76.800 255.496,76.800 255.824 C 76.800 256.152,76.350 256.591,75.800 256.800 C 75.250 257.009,74.800 257.365,74.800 257.590 C 74.800 257.816,74.607 258.000,74.371 258.000 C 73.758 258.000,72.787 259.054,73.107 259.374 C 73.255 259.521,73.037 259.512,72.622 259.353 C 72.098 259.152,71.957 259.206,72.158 259.532 C 72.317 259.789,72.284 260.000,72.085 260.000 C 71.486 260.000,69.993 261.460,70.290 261.756 C 70.441 261.908,70.170 262.135,69.687 262.261 C 69.204 262.388,68.908 262.650,69.028 262.845 C 69.149 263.040,68.974 263.200,68.640 263.200 C 68.306 263.200,67.298 263.920,66.400 264.800 C 65.502 265.680,64.609 266.400,64.414 266.400 C 64.220 266.400,62.922 267.544,61.531 268.942 C 60.139 270.340,58.592 271.613,58.094 271.771 C 57.596 271.929,57.299 272.237,57.434 272.456 C 57.570 272.675,57.302 272.953,56.840 273.074 C 56.378 273.194,56.000 273.452,56.000 273.647 C 56.000 273.841,55.730 274.000,55.400 274.000 C 55.070 274.000,54.800 274.300,54.800 274.667 C 54.800 275.033,54.701 275.235,54.581 275.114 C 54.460 274.993,53.933 275.276,53.410 275.742 C 52.746 276.334,52.601 276.680,52.930 276.889 C 53.217 277.071,53.045 277.190,52.487 277.194 C 51.986 277.197,51.478 277.452,51.360 277.761 C 51.241 278.069,50.752 278.429,50.272 278.561 C 49.530 278.764,49.489 278.865,50.000 279.238 C 50.511 279.610,50.497 279.642,49.911 279.454 C 49.122 279.201,46.234 281.681,46.707 282.205 C 46.868 282.383,46.779 282.401,46.509 282.246 C 46.210 282.074,45.169 282.814,43.838 284.144 C 42.639 285.344,41.563 286.230,41.448 286.115 C 41.333 285.999,40.947 286.196,40.590 286.552 C 40.107 287.036,40.077 287.208,40.471 287.232 C 40.762 287.250,40.477 287.496,39.837 287.778 C 39.043 288.129,38.853 288.362,39.237 288.514 C 39.575 288.648,39.430 288.749,38.876 288.768 C 38.368 288.786,38.056 288.967,38.182 289.171 C 38.308 289.375,38.030 289.664,37.563 289.812 C 36.447 290.166,35.189 291.259,35.437 291.660 C 35.545 291.834,35.182 292.090,34.631 292.228 C 34.080 292.366,33.526 292.804,33.400 293.200 C 33.274 293.596,32.720 294.034,32.169 294.172 C 31.618 294.310,31.275 294.598,31.407 294.812 C 31.539 295.025,31.463 295.200,31.237 295.200 C 31.012 295.200,30.295 295.695,29.644 296.300 C 28.994 296.905,27.994 297.726,27.422 298.125 C 26.851 298.524,26.491 299.023,26.622 299.235 C 26.752 299.447,26.711 299.594,26.530 299.563 C 25.824 299.440,25.079 299.612,25.311 299.844 C 25.446 299.979,25.027 300.534,24.381 301.077 C 23.454 301.858,23.288 302.217,23.592 302.785 C 24.199 303.920,28.400 308.160,28.400 307.638 C 28.400 307.301,28.558 307.314,28.962 307.684 C 29.271 307.968,29.496 308.380,29.462 308.600 C 29.428 308.820,29.625 308.955,29.900 308.900 C 30.175 308.845,30.408 309.025,30.418 309.300 C 30.429 309.575,30.900 310.160,31.466 310.600 C 32.032 311.040,32.819 311.700,33.214 312.067 C 33.610 312.433,34.038 312.628,34.167 312.500 C 34.295 312.372,34.400 312.491,34.400 312.764 C 34.400 313.256,36.524 315.600,36.969 315.600 C 37.096 315.600,37.920 316.320,38.800 317.200 C 39.680 318.080,40.498 318.800,40.617 318.800 C 40.736 318.800,41.220 319.160,41.692 319.600 C 42.164 320.040,42.393 320.400,42.199 320.400 C 42.005 320.400,42.195 320.654,42.619 320.965 C 43.044 321.275,43.515 321.452,43.667 321.359 C 43.818 321.265,44.055 321.542,44.192 321.974 C 44.329 322.406,44.792 322.870,45.220 323.006 C 45.649 323.143,46.000 323.422,46.000 323.627 C 46.000 323.832,46.249 324.000,46.553 324.000 C 46.858 324.000,47.206 324.378,47.326 324.840 C 47.466 325.375,47.724 325.571,48.035 325.378 C 48.315 325.205,48.421 325.243,48.282 325.467 C 47.973 325.968,49.511 327.302,50.029 326.982 C 50.244 326.849,50.370 326.915,50.310 327.129 C 50.161 327.656,53.622 330.833,54.055 330.566 C 54.245 330.449,54.400 330.620,54.400 330.946 C 54.400 331.272,54.934 332.047,55.587 332.669 C 57.394 334.390,58.000 334.860,58.000 334.540 C 58.000 334.380,58.367 334.643,58.816 335.125 C 59.264 335.606,59.834 336.000,60.082 336.000 C 60.330 336.000,60.428 336.105,60.300 336.233 C 59.916 336.618,61.592 338.052,62.076 337.753 C 62.358 337.579,62.411 337.659,62.219 337.969 C 61.918 338.456,63.208 340.000,63.917 340.000 C 64.110 340.000,64.714 340.495,65.260 341.100 C 65.806 341.705,66.913 342.758,67.720 343.440 C 68.527 344.121,69.087 344.780,68.964 344.903 C 68.840 345.026,69.097 345.240,69.533 345.379 C 69.969 345.517,70.431 345.905,70.560 346.241 C 70.689 346.576,70.976 346.739,71.197 346.602 C 71.419 346.465,71.600 346.633,71.600 346.976 C 71.600 347.319,71.870 347.600,72.200 347.600 C 72.530 347.600,72.800 347.791,72.800 348.024 C 72.800 348.257,72.967 348.344,73.171 348.218 C 73.375 348.092,73.655 348.342,73.792 348.774 C 73.929 349.206,74.405 349.675,74.851 349.816 C 75.296 349.957,75.565 350.168,75.449 350.284 C 75.173 350.560,76.218 351.600,76.771 351.600 C 77.007 351.600,77.200 351.881,77.200 352.224 C 77.200 352.567,77.380 352.736,77.600 352.600 C 77.820 352.464,78.000 352.543,78.000 352.776 C 78.000 353.009,78.225 353.155,78.500 353.100 C 78.775 353.045,78.955 353.225,78.900 353.500 C 78.845 353.775,78.980 354.000,79.200 354.000 C 79.421 354.000,80.300 354.720,81.154 355.600 C 82.008 356.480,82.897 357.200,83.130 357.200 C 83.362 357.200,83.681 357.408,83.838 357.662 C 84.029 357.970,83.937 358.019,83.562 357.809 C 83.253 357.636,83.606 358.013,84.347 358.647 C 85.089 359.281,86.034 360.115,86.447 360.500 C 86.861 360.885,87.200 361.110,87.200 361.000 C 87.200 360.890,87.560 361.160,88.000 361.600 C 88.440 362.040,88.800 362.568,88.800 362.773 C 88.800 362.978,89.160 363.260,89.600 363.400 C 90.041 363.540,90.590 364.007,90.820 364.438 C 91.051 364.870,91.384 365.134,91.560 365.025 C 91.736 364.916,92.117 365.271,92.407 365.814 C 92.698 366.356,93.083 366.800,93.265 366.800 C 93.446 366.800,94.747 367.970,96.156 369.400 C 97.565 370.830,98.897 372.000,99.116 372.000 C 99.335 372.000,99.618 372.270,99.745 372.600 C 99.871 372.930,100.261 373.200,100.611 373.200 C 100.961 373.200,101.149 373.360,101.028 373.555 C 100.908 373.750,101.166 374.002,101.602 374.117 C 102.039 374.231,102.520 374.656,102.672 375.062 C 102.823 375.468,103.275 376.036,103.676 376.324 C 104.377 376.829,104.404 381.163,104.398 494.524 L 104.392 612.200 114.796 612.307 L 125.200 612.413 125.200 504.237 L 125.200 396.061 126.400 396.660 C 127.060 396.989,127.600 397.346,127.600 397.453 C 127.600 397.560,127.375 397.525,127.100 397.377 C 126.642 397.129,127.420 397.849,129.946 400.011 C 130.466 400.456,131.231 401.002,131.646 401.224 C 132.060 401.446,132.400 401.880,132.400 402.187 C 132.400 402.495,132.774 402.865,133.230 403.010 C 133.687 403.154,133.968 403.366,133.854 403.479 C 133.562 403.771,134.537 404.754,134.900 404.534 C 135.065 404.435,135.200 404.543,135.200 404.776 C 135.200 405.009,135.481 405.200,135.824 405.200 C 136.167 405.200,136.336 405.380,136.200 405.600 C 136.064 405.820,136.161 406.000,136.416 406.000 C 136.671 406.000,137.653 406.819,138.599 407.821 C 139.732 409.020,140.391 409.464,140.528 409.121 C 140.648 408.821,140.750 408.941,140.768 409.404 C 140.786 409.847,141.366 410.657,142.057 411.204 C 142.749 411.752,144.206 413.055,145.297 414.099 C 146.387 415.144,147.469 415.881,147.701 415.737 C 147.955 415.580,148.005 415.669,147.825 415.959 C 147.648 416.246,147.907 416.756,148.463 417.214 C 148.978 417.638,149.617 418.169,149.883 418.393 C 150.149 418.617,150.485 418.800,150.630 418.800 C 150.775 418.800,151.571 419.520,152.400 420.400 C 153.229 421.280,154.108 422.000,154.353 422.000 C 154.599 422.000,154.800 422.252,154.800 422.561 C 154.800 422.869,155.340 423.310,156.000 423.540 C 156.660 423.770,157.200 424.068,157.200 424.203 C 157.200 424.337,157.022 424.337,156.805 424.203 C 156.578 424.063,156.511 424.223,156.647 424.579 C 156.778 424.921,157.220 425.200,157.629 425.200 C 158.037 425.200,158.581 425.591,158.837 426.069 C 159.495 427.299,161.586 429.186,163.000 429.826 C 163.660 430.124,163.962 430.376,163.671 430.384 C 163.106 430.401,164.047 431.600,164.626 431.600 C 164.781 431.600,165.321 432.045,165.825 432.589 C 166.433 433.246,166.807 433.413,166.939 433.089 C 167.052 432.810,167.150 432.901,167.168 433.300 C 167.186 433.685,167.391 434.000,167.624 434.000 C 167.857 434.000,167.967 434.135,167.870 434.300 C 167.772 434.465,168.212 435.106,168.846 435.725 C 169.501 436.363,170.003 436.623,170.006 436.325 C 170.009 436.036,170.245 436.250,170.529 436.800 C 170.814 437.350,171.364 437.773,171.751 437.740 C 172.203 437.701,172.378 437.880,172.240 438.240 C 172.122 438.548,172.244 438.802,172.513 438.805 C 172.781 438.808,173.697 439.618,174.550 440.605 C 175.402 441.592,176.347 442.400,176.650 442.400 C 176.952 442.400,177.200 442.648,177.200 442.950 C 177.200 443.253,177.785 443.788,178.500 444.141 C 179.215 444.493,179.673 444.786,179.517 444.791 C 179.361 444.796,180.081 445.602,181.117 446.583 C 186.318 451.507,188.312 453.200,188.910 453.200 C 189.096 453.200,189.136 453.380,189.000 453.600 C 188.864 453.820,189.168 454.014,189.676 454.032 C 190.189 454.049,190.359 454.159,190.060 454.278 C 189.693 454.424,190.129 455.054,191.416 456.235 C 192.460 457.193,193.455 457.890,193.628 457.783 C 193.801 457.676,194.057 457.951,194.198 458.393 C 194.338 458.836,194.891 459.308,195.427 459.442 C 196.042 459.597,196.400 459.974,196.400 460.467 C 196.400 460.896,196.560 461.148,196.756 461.027 C 196.952 460.906,197.410 461.261,197.774 461.816 C 198.138 462.371,198.607 462.719,198.818 462.589 C 199.028 462.459,199.200 462.653,199.200 463.019 C 199.200 463.457,199.413 463.604,199.821 463.447 C 200.165 463.315,200.336 463.379,200.206 463.591 C 200.076 463.801,200.599 464.384,201.369 464.886 C 202.138 465.389,202.987 466.208,203.256 466.708 C 203.565 467.283,203.844 467.452,204.019 467.170 C 204.184 466.903,204.392 467.101,204.537 467.662 C 204.670 468.178,205.427 469.037,206.217 469.570 C 207.008 470.104,209.184 472.036,211.052 473.862 C 212.920 475.689,214.573 477.145,214.725 477.098 C 214.876 477.051,215.487 477.505,216.082 478.106 C 216.677 478.708,217.067 479.200,216.948 479.200 C 216.830 479.200,217.497 479.913,218.431 480.784 C 219.365 481.655,220.280 482.274,220.465 482.160 C 220.649 482.046,220.800 482.233,220.800 482.576 C 220.800 482.919,220.965 483.200,221.167 483.200 C 221.368 483.200,222.727 484.370,224.185 485.800 C 225.643 487.230,227.088 488.400,227.395 488.400 C 227.702 488.400,228.081 488.608,228.238 488.862 C 228.432 489.175,228.343 489.215,227.962 488.985 C 227.484 488.697,227.482 488.748,227.945 489.319 C 228.245 489.689,228.617 489.913,228.772 489.817 C 228.927 489.721,229.312 490.016,229.627 490.472 C 230.680 491.997,232.594 493.604,233.121 493.405 C 233.418 493.294,233.528 493.392,233.378 493.635 C 233.233 493.870,233.481 494.402,233.928 494.819 C 234.505 495.356,234.799 495.434,234.939 495.088 C 235.048 494.820,235.151 495.020,235.168 495.533 C 235.186 496.066,235.404 496.399,235.675 496.308 C 236.137 496.154,237.600 497.336,237.600 497.864 C 237.600 498.576,241.383 501.555,241.698 501.091 C 241.923 500.762,241.995 500.856,241.917 501.378 C 241.849 501.832,242.133 502.333,242.600 502.582 C 243.040 502.817,244.326 503.952,245.457 505.104 C 246.588 506.257,247.713 507.200,247.957 507.200 C 248.201 507.200,248.400 507.393,248.400 507.629 C 248.400 508.313,249.553 509.276,250.024 508.985 C 250.263 508.838,250.552 509.093,250.674 509.560 C 250.794 510.022,251.136 510.400,251.433 510.400 C 251.729 510.400,252.172 510.774,252.416 511.230 C 253.074 512.460,254.318 513.600,255.000 513.600 C 255.330 513.600,255.555 513.817,255.500 514.082 C 255.445 514.347,255.670 514.580,256.000 514.600 C 256.330 514.620,256.557 514.847,256.505 515.104 C 256.451 515.367,256.668 515.472,257.001 515.344 C 257.355 515.208,257.706 515.415,257.872 515.858 C 258.301 516.997,261.528 520.000,261.747 519.464 C 261.851 519.209,261.951 519.324,261.968 519.719 C 262.002 520.487,263.896 522.366,264.657 522.387 C 264.909 522.394,265.222 522.681,265.354 523.025 C 265.486 523.369,265.780 523.536,266.007 523.396 C 266.234 523.255,266.374 523.289,266.317 523.470 C 266.164 523.963,267.697 525.600,268.313 525.600 C 268.607 525.600,268.746 525.764,268.622 525.965 C 268.362 526.385,271.260 528.800,272.024 528.800 C 272.304 528.800,272.436 528.898,272.317 529.017 C 272.197 529.136,272.974 530.081,274.044 531.117 C 276.731 533.721,277.336 534.215,277.692 534.100 C 277.861 534.045,278.000 534.191,278.000 534.424 C 278.000 534.657,278.180 534.736,278.400 534.600 C 278.620 534.464,278.800 534.531,278.800 534.748 C 278.800 535.400,281.500 538.056,282.277 538.168 C 282.675 538.226,283.059 538.671,283.131 539.159 C 283.203 539.646,283.698 540.244,284.231 540.487 C 284.764 540.730,285.200 541.090,285.200 541.288 C 285.200 541.485,285.371 541.542,285.580 541.412 C 285.789 541.283,286.166 541.562,286.417 542.032 C 287.109 543.324,289.581 545.596,290.334 545.632 C 290.740 545.651,290.807 545.741,290.506 545.863 C 290.006 546.065,291.958 548.000,292.663 548.000 C 292.854 548.000,293.346 548.447,293.755 548.992 C 294.165 549.538,294.658 549.888,294.850 549.769 C 295.043 549.650,295.200 549.731,295.200 549.948 C 295.200 550.619,297.856 553.200,298.547 553.200 C 298.906 553.200,299.200 553.436,299.200 553.725 C 299.200 554.288,301.602 556.250,302.100 556.094 C 302.265 556.042,302.400 556.194,302.400 556.432 C 302.400 556.854,305.034 559.608,306.577 560.800 C 307.267 561.333,307.316 561.333,307.018 560.800 C 306.833 560.470,307.248 560.817,307.941 561.572 C 308.633 562.327,309.200 563.102,309.200 563.296 C 309.200 563.489,309.380 563.536,309.600 563.400 C 309.820 563.264,310.000 563.383,310.000 563.664 C 310.000 564.374,312.493 566.444,313.080 566.222 C 313.366 566.114,313.470 566.274,313.337 566.620 C 313.214 566.939,313.337 567.200,313.610 567.200 C 313.883 567.200,314.700 567.830,315.426 568.600 C 316.152 569.370,316.949 570.000,317.197 570.000 C 317.445 570.000,317.556 570.148,317.444 570.329 C 317.248 570.645,318.685 572.127,319.300 572.243 C 319.465 572.274,319.759 572.323,319.953 572.350 C 320.148 572.378,320.406 572.778,320.526 573.240 C 320.647 573.702,320.925 573.970,321.144 573.834 C 321.363 573.699,321.657 573.951,321.798 574.394 C 321.939 574.837,322.223 575.200,322.430 575.200 C 322.636 575.200,323.191 575.644,323.663 576.186 C 324.135 576.729,324.701 577.061,324.922 576.925 C 325.149 576.784,325.200 576.877,325.038 577.138 C 324.863 577.422,325.032 577.602,325.476 577.606 C 326.045 577.611,326.082 577.687,325.647 577.962 C 325.213 578.237,325.277 578.371,325.947 578.583 C 326.416 578.732,326.800 579.052,326.800 579.294 C 326.800 579.535,326.895 579.638,327.012 579.521 C 327.128 579.405,328.777 580.808,330.675 582.639 C 332.574 584.470,334.283 585.872,334.473 585.755 C 334.664 585.637,334.770 585.775,334.710 586.061 C 334.649 586.347,335.005 586.643,335.500 586.718 C 335.995 586.794,336.400 587.073,336.400 587.339 C 336.400 587.835,337.538 588.977,338.133 589.077 C 338.317 589.108,338.587 589.267,338.733 589.431 C 338.880 589.594,338.775 589.599,338.500 589.441 C 338.225 589.282,338.000 589.308,338.000 589.497 C 338.000 589.686,338.810 590.234,339.800 590.715 C 340.790 591.196,341.600 591.829,341.600 592.123 C 341.600 592.714,343.379 594.400,344.003 594.400 C 344.221 594.400,344.400 594.592,344.400 594.827 C 344.400 595.062,345.075 595.867,345.900 596.617 C 346.725 597.367,347.805 598.386,348.300 598.882 C 348.795 599.378,349.200 599.646,349.200 599.478 C 349.200 599.310,349.714 599.698,350.342 600.341 C 350.970 600.984,351.894 601.639,352.395 601.798 C 353.103 602.023,353.183 602.165,352.753 602.438 C 352.314 602.715,352.345 602.789,352.900 602.794 C 353.285 602.797,353.600 603.087,353.600 603.437 C 353.600 603.788,353.958 604.169,354.396 604.283 C 354.833 604.397,355.073 604.681,354.930 604.913 C 354.766 605.179,354.923 605.238,355.355 605.073 C 355.759 604.918,355.942 604.970,355.800 605.200 C 355.667 605.415,356.373 606.108,357.369 606.739 C 358.364 607.371,359.103 607.963,359.011 608.056 C 358.918 608.148,359.672 609.029,360.687 610.012 C 361.701 610.995,362.401 611.575,362.242 611.300 C 362.083 611.025,362.058 610.800,362.186 610.800 C 362.315 610.800,362.591 611.250,362.800 611.800 C 363.067 612.501,363.481 612.800,364.188 612.800 L 365.195 612.800 365.199 477.600 L 365.202 342.400 313.101 342.406 C 284.446 342.409,261.240 342.565,261.534 342.751 C 262.129 343.128,260.921 343.585,259.300 343.595 L 258.400 343.600 258.400 352.605 L 258.400 361.610 301.700 361.595 L 345.000 361.579 345.098 465.072 C 345.151 521.993,345.049 568.711,344.870 568.890 C 344.691 569.069,343.485 568.222,342.191 567.008 C 340.896 565.794,339.761 564.800,339.668 564.800 C 339.575 564.800,338.127 563.464,336.450 561.831 C 334.772 560.197,332.860 558.444,332.200 557.934 C 331.540 557.424,330.354 556.375,329.564 555.603 C 328.775 554.831,327.245 553.418,326.164 552.462 C 320.241 547.221,311.529 539.253,307.706 535.580 C 306.114 534.051,304.716 532.800,304.599 532.800 C 304.482 532.800,303.206 531.675,301.762 530.300 C 300.318 528.925,298.488 527.260,297.695 526.600 C 296.902 525.940,295.498 524.680,294.576 523.800 C 293.068 522.360,290.427 519.951,284.658 514.750 C 283.591 513.788,281.365 511.740,279.713 510.200 C 278.062 508.660,276.155 506.950,275.476 506.400 C 274.798 505.850,273.243 504.432,272.021 503.250 C 270.800 502.067,268.821 500.267,267.624 499.250 C 266.427 498.232,264.705 496.680,263.797 495.800 C 262.889 494.920,261.438 493.595,260.573 492.855 C 259.708 492.116,257.999 490.586,256.777 489.455 C 253.282 486.225,247.984 481.414,245.856 479.539 C 244.787 478.597,243.053 477.010,242.004 476.013 C 240.954 475.016,238.509 472.760,236.570 471.000 C 234.632 469.240,232.045 466.885,230.823 465.767 C 228.629 463.761,227.016 462.297,221.380 457.200 C 219.799 455.770,217.177 453.393,215.553 451.917 C 213.929 450.441,211.445 448.191,210.033 446.917 C 208.622 445.643,206.838 443.925,206.069 443.100 C 205.300 442.275,204.525 441.600,204.346 441.600 C 204.166 441.600,202.800 440.409,201.310 438.954 C 199.819 437.498,198.060 435.860,197.400 435.314 C 195.785 433.979,190.594 429.268,186.744 425.644 C 185.016 424.018,183.092 422.308,182.468 421.844 C 181.843 421.380,180.342 420.010,179.131 418.800 C 177.920 417.590,176.495 416.259,175.964 415.842 C 175.434 415.426,173.818 413.986,172.374 412.642 C 166.920 407.571,162.562 403.626,161.479 402.783 C 160.863 402.303,159.128 400.715,157.624 399.255 C 154.773 396.486,149.957 392.119,147.862 390.400 C 147.191 389.850,145.643 388.432,144.421 387.250 C 143.200 386.067,141.224 384.267,140.030 383.250 C 138.837 382.232,136.725 380.320,135.337 379.000 C 130.427 374.332,126.585 370.819,125.400 369.915 C 124.740 369.412,123.057 367.920,121.659 366.600 C 114.603 359.936,112.428 357.953,110.536 356.464 C 109.401 355.570,108.231 354.515,107.936 354.119 C 107.641 353.724,106.680 352.791,105.800 352.047 C 104.060 350.575,99.280 346.243,94.455 341.764 C 92.775 340.205,90.590 338.225,89.600 337.365 C 88.610 336.505,86.966 334.946,85.946 333.900 C 84.927 332.855,83.948 332.000,83.772 332.000 C 83.596 332.000,81.889 330.515,79.979 328.700 C 76.261 325.168,70.837 320.192,69.200 318.811 C 68.072 317.860,62.675 312.879,59.302 309.676 C 58.071 308.507,56.600 307.188,56.032 306.743 C 52.080 303.649,51.636 302.942,52.800 301.600 C 53.240 301.093,53.600 300.810,53.600 300.971 C 53.600 301.132,54.581 300.328,55.779 299.184 C 56.978 298.040,58.373 296.815,58.879 296.461 C 59.386 296.106,60.520 295.157,61.400 294.350 C 63.125 292.769,66.495 289.870,68.043 288.638 C 68.569 288.219,69.726 287.229,70.614 286.438 C 71.502 285.647,73.377 284.010,74.782 282.800 C 76.187 281.590,78.070 279.953,78.968 279.162 C 79.866 278.371,81.032 277.381,81.561 276.962 C 82.090 276.543,83.454 275.390,84.592 274.400 C 85.731 273.410,87.606 271.790,88.760 270.800 C 89.914 269.810,91.435 268.460,92.139 267.800 C 92.843 267.140,94.225 265.970,95.209 265.200 C 96.193 264.430,97.464 263.350,98.032 262.800 C 99.305 261.568,103.429 258.015,104.533 257.200 C 104.979 256.870,105.987 255.965,106.772 255.189 C 107.558 254.412,109.010 253.152,109.999 252.389 C 110.989 251.625,112.278 250.550,112.863 250.000 C 113.448 249.450,115.217 247.920,116.793 246.600 C 118.370 245.280,120.323 243.568,121.135 242.795 C 121.947 242.022,123.188 240.978,123.893 240.476 C 124.598 239.974,125.685 239.076,126.307 238.481 C 127.673 237.175,131.348 234.017,132.996 232.732 C 133.653 232.219,134.844 231.170,135.641 230.400 C 136.438 229.630,138.485 227.830,140.190 226.400 C 141.895 224.970,143.706 223.400,144.215 222.911 C 144.724 222.423,146.187 221.171,147.466 220.129 C 148.744 219.088,150.173 217.823,150.641 217.318 C 151.109 216.813,151.683 216.400,151.917 216.400 C 152.151 216.400,152.670 215.995,153.071 215.500 C 153.472 215.005,154.430 214.092,155.200 213.470 C 156.802 212.177,159.920 209.504,163.216 206.600 C 164.464 205.500,166.437 203.790,167.600 202.800 C 168.763 201.810,170.736 200.100,171.984 199.000 C 173.232 197.900,174.781 196.564,175.427 196.031 C 177.664 194.183,181.801 190.599,182.003 190.333 C 182.115 190.187,182.897 189.517,183.742 188.846 C 184.587 188.174,186.136 186.854,187.183 185.912 C 189.150 184.144,190.019 183.405,192.405 181.469 C 193.172 180.846,194.790 179.457,196.000 178.380 C 197.210 177.304,199.204 175.563,200.432 174.512 C 203.712 171.702,207.500 168.420,209.563 166.600 C 210.561 165.720,211.625 164.820,211.927 164.600 C 212.229 164.380,212.954 163.750,213.538 163.200 C 214.122 162.650,215.320 161.600,216.200 160.865 C 218.743 158.743,221.517 156.345,223.678 154.400 C 224.777 153.410,225.975 152.434,226.339 152.232 C 226.702 152.030,227.270 151.580,227.600 151.232 C 227.930 150.884,229.455 149.520,230.989 148.200 C 232.522 146.880,234.065 145.530,234.417 145.200 C 235.525 144.162,237.747 142.244,239.200 141.070 C 241.750 139.011,244.937 136.228,247.181 134.100 C 248.399 132.945,249.531 132.000,249.698 132.000 C 249.864 132.000,250.705 131.325,251.568 130.500 C 253.641 128.516,257.017 125.600,258.118 124.844 C 258.603 124.510,259.450 123.777,260.000 123.214 C 260.550 122.651,261.630 121.682,262.400 121.061 C 263.170 120.440,264.769 119.092,265.954 118.066 C 267.138 117.040,269.045 115.390,270.192 114.400 C 271.338 113.410,273.404 111.610,274.783 110.400 C 276.161 109.190,277.539 108.056,277.845 107.880 C 278.150 107.704,278.985 106.980,279.700 106.271 C 280.415 105.561,281.820 104.326,282.823 103.527 C 283.826 102.727,285.086 101.609,285.623 101.043 C 286.160 100.477,286.735 100.011,286.900 100.007 C 287.065 100.003,287.905 99.325,288.766 98.500 C 290.624 96.720,294.300 93.504,295.877 92.279 C 296.495 91.799,297.661 90.775,298.470 90.003 C 299.278 89.231,300.292 88.330,300.723 88.000 C 302.016 87.010,305.293 84.256,306.196 83.400 C 306.661 82.960,307.662 82.084,308.421 81.452 C 310.747 79.517,314.415 76.297,316.560 74.308 C 317.682 73.267,318.724 72.412,318.876 72.408 C 319.029 72.404,320.092 71.500,321.239 70.400 C 322.386 69.300,323.470 68.400,323.647 68.400 C 323.824 68.400,324.651 67.724,325.485 66.897 C 326.318 66.070,328.792 63.865,330.982 61.997 C 335.184 58.412,336.143 57.581,338.400 55.568 C 339.170 54.881,340.592 53.662,341.559 52.859 C 342.527 52.057,343.517 51.219,343.759 50.998 C 348.729 46.466,350.168 45.504,350.498 46.493 C 350.595 46.786,351.411 46.228,352.497 45.126 C 353.506 44.102,354.707 43.064,355.166 42.818 C 355.625 42.573,356.000 42.098,356.000 41.762 C 356.000 41.427,356.145 41.242,356.321 41.351 C 356.498 41.461,357.318 40.931,358.144 40.175 C 358.969 39.419,359.734 38.800,359.844 38.800 C 361.655 38.800,362.857 35.126,361.216 34.605 C 360.808 34.476,360.373 34.106,360.250 33.785 C 360.126 33.463,359.739 33.200,359.389 33.200 C 359.039 33.200,358.844 33.052,358.956 32.871 C 359.068 32.691,358.808 32.242,358.380 31.875 C 357.951 31.508,357.600 31.303,357.600 31.420 C 357.600 31.536,357.349 31.399,357.042 31.116 C 356.735 30.832,356.536 30.510,356.600 30.400 C 356.664 30.290,356.465 29.968,356.158 29.684 C 355.836 29.387,355.600 29.344,355.600 29.584 C 355.600 29.813,355.294 30.000,354.920 30.000 C 354.391 30.000,354.347 29.893,354.720 29.520 C 355.425 28.815,355.307 28.400,354.400 28.400 C 353.942 28.400,353.600 28.133,353.600 27.776 C 353.600 27.433,353.440 27.251,353.245 27.372 C 353.050 27.492,352.793 27.215,352.672 26.755 C 352.552 26.296,352.262 26.038,352.027 26.183 C 351.792 26.328,351.600 26.179,351.600 25.851 C 351.600 25.522,351.230 25.136,350.777 24.993 C 350.324 24.849,349.789 24.297,349.587 23.766 C 349.189 22.718,348.083 22.501,347.221 23.300 C 346.790 23.700,346.739 23.700,346.965 23.300 C 347.529 22.301,346.496 22.831,345.600 24.000 " stroke="none" fill="#04a49c" fill-rule="evenodd"></path><path id="path1" d="M347.800 47.817 C 342.500 52.438,342.169 52.800,343.253 52.800 C 343.796 52.800,346.400 50.109,346.400 49.548 C 346.400 49.331,346.580 49.264,346.800 49.400 C 347.020 49.536,347.200 49.457,347.200 49.224 C 347.200 48.991,347.425 48.795,347.700 48.789 C 347.975 48.783,348.725 48.243,349.367 47.589 C 351.015 45.910,349.782 46.089,347.800 47.817 M339.378 55.090 C 334.769 59.084,333.049 60.800,333.654 60.800 C 333.977 60.800,335.042 59.994,336.020 59.008 C 336.999 58.022,337.963 57.212,338.162 57.208 C 338.362 57.204,339.228 56.483,340.087 55.606 C 340.947 54.729,341.932 53.854,342.276 53.661 C 342.683 53.434,342.752 53.217,342.474 53.045 C 342.238 52.900,340.845 53.820,339.378 55.090 M330.433 62.814 C 329.519 63.702,328.880 64.605,329.013 64.822 C 329.221 65.157,332.800 61.909,332.800 61.385 C 332.800 60.842,331.914 61.377,330.433 62.814 M325.550 66.997 C 317.423 73.999,314.558 76.691,314.886 77.020 C 315.039 77.172,315.726 76.736,316.413 76.049 C 317.100 75.362,317.858 74.800,318.097 74.800 C 318.337 74.800,318.422 74.689,318.286 74.552 C 317.989 74.256,318.973 73.200,319.545 73.200 C 319.767 73.200,320.903 72.210,322.071 71.000 C 323.239 69.790,324.422 68.800,324.698 68.800 C 325.224 68.800,328.400 65.628,328.400 65.102 C 328.400 64.587,328.175 64.736,325.550 66.997 M311.683 78.926 C 310.647 79.875,309.478 80.910,309.085 81.226 C 307.502 82.496,305.600 84.309,305.600 84.547 C 305.600 85.235,306.610 84.615,308.283 82.900 C 309.302 81.855,310.264 81.038,310.422 81.085 C 310.685 81.163,312.685 79.293,313.916 77.818 C 315.007 76.510,313.505 77.256,311.683 78.926 M302.200 87.200 C 301.117 88.300,300.043 89.203,299.815 89.207 C 299.117 89.218,295.957 92.726,296.398 92.999 C 296.624 93.138,297.656 92.341,298.691 91.226 C 299.727 90.112,300.776 89.200,301.022 89.200 C 301.461 89.200,304.800 85.862,304.800 85.423 C 304.800 84.827,303.997 85.376,302.200 87.200 M293.279 94.862 C 291.629 96.496,290.934 97.825,292.293 96.749 C 294.292 95.165,296.101 93.200,295.560 93.200 C 295.229 93.200,294.202 93.948,293.279 94.862 M290.400 97.481 C 289.647 97.754,287.200 100.046,287.200 100.478 C 287.200 101.137,287.886 100.755,289.519 99.185 C 290.944 97.817,291.526 97.097,291.100 97.232 C 291.045 97.249,290.730 97.361,290.400 97.481 M284.087 102.791 C 281.962 104.818,281.694 105.200,282.395 105.200 C 282.794 105.200,286.800 101.385,286.800 101.005 C 286.800 100.445,285.985 100.981,284.087 102.791 M278.600 107.403 C 277.280 108.606,275.439 110.267,274.508 111.095 C 273.577 111.923,272.812 112.735,272.808 112.900 C 272.790 113.588,273.564 113.086,275.426 111.205 C 276.512 110.107,277.595 109.207,277.834 109.205 C 278.073 109.202,278.736 108.705,279.309 108.100 C 279.881 107.495,280.631 106.768,280.975 106.484 C 281.627 105.946,281.818 105.194,281.300 105.208 C 281.135 105.212,279.920 106.200,278.600 107.403 M269.715 115.182 C 268.385 116.492,267.211 117.478,267.107 117.373 C 267.002 117.269,266.154 118.011,265.222 119.022 C 262.962 121.474,263.545 121.903,265.858 119.490 C 266.854 118.451,267.822 117.600,268.008 117.600 C 268.508 117.600,272.400 113.724,272.400 113.226 C 272.400 112.566,272.292 112.645,269.715 115.182 M260.578 122.959 C 259.569 123.926,258.920 124.827,259.136 124.960 C 259.496 125.183,261.418 123.547,262.749 121.885 C 263.862 120.496,262.388 121.225,260.578 122.959 M256.235 126.810 C 255.231 127.735,254.521 128.673,254.657 128.893 C 254.794 129.113,255.717 128.458,256.709 127.437 C 259.012 125.068,258.648 124.587,256.235 126.810 M251.416 130.900 C 246.232 135.537,245.418 136.352,245.695 136.629 C 245.854 136.787,246.797 136.068,247.792 135.030 C 248.786 133.992,249.600 133.245,249.600 133.369 C 249.600 133.660,251.385 132.141,252.853 130.600 C 253.843 129.561,254.278 128.800,253.882 128.800 C 253.817 128.800,252.707 129.745,251.416 130.900 M241.559 139.308 C 240.327 140.459,238.572 142.064,237.659 142.876 C 236.166 144.205,235.565 145.200,236.256 145.200 C 236.397 145.200,237.362 144.300,238.400 143.200 C 239.438 142.100,240.493 141.200,240.745 141.200 C 241.238 141.200,244.400 138.001,244.400 137.502 C 244.400 136.859,243.718 137.292,241.559 139.308 M232.883 146.926 C 231.847 147.875,230.730 148.856,230.400 149.106 C 227.458 151.332,225.465 153.578,226.839 153.120 C 227.847 152.784,235.902 145.200,235.251 145.200 C 234.984 145.200,233.918 145.977,232.883 146.926 M223.060 155.300 C 221.780 156.455,219.895 158.152,218.870 159.070 C 217.845 159.989,217.133 160.866,217.288 161.021 C 217.442 161.176,218.511 160.379,219.663 159.251 C 220.815 158.123,221.922 157.200,222.123 157.200 C 222.508 157.200,226.000 153.794,226.000 153.419 C 226.000 152.856,225.205 153.364,223.060 155.300 M215.344 162.100 C 213.663 163.348,212.800 164.262,212.800 164.795 C 212.800 165.044,212.592 165.119,212.338 164.962 C 212.043 164.780,211.985 164.853,212.178 165.164 C 212.404 165.530,212.695 165.470,213.338 164.926 C 214.504 163.941,216.800 161.583,216.800 161.372 C 216.800 161.071,216.583 161.180,215.344 162.100 M209.200 167.400 C 208.228 168.390,207.665 169.200,207.948 169.200 C 208.231 169.200,209.273 168.390,210.263 167.400 C 211.253 166.410,211.816 165.600,211.515 165.600 C 211.213 165.600,210.172 166.410,209.200 167.400 M204.898 170.918 C 203.263 172.533,202.856 173.200,203.502 173.200 C 203.968 173.200,207.200 170.054,207.200 169.601 C 207.200 168.881,206.628 169.209,204.898 170.918 M200.300 174.961 C 198.354 176.755,198.065 177.200,198.844 177.200 C 199.284 177.200,202.800 173.840,202.800 173.419 C 202.800 172.880,202.063 173.334,200.300 174.961 M195.683 178.926 C 194.647 179.875,193.465 180.910,193.055 181.226 C 191.019 182.795,188.832 185.172,189.210 185.406 C 189.441 185.549,190.502 184.751,191.569 183.633 C 192.635 182.515,193.678 181.600,193.887 181.600 C 194.351 181.600,197.130 178.868,197.651 177.900 C 198.250 176.788,197.706 177.072,195.683 178.926 M185.903 187.332 C 184.650 188.470,182.809 190.098,181.813 190.952 C 180.035 192.474,179.585 193.200,180.419 193.200 C 180.821 193.200,181.554 192.495,183.497 190.241 C 183.991 189.668,184.637 189.200,184.932 189.200 C 185.603 189.200,188.913 185.717,188.491 185.456 C 188.321 185.351,187.156 186.195,185.903 187.332 M178.158 194.100 C 177.525 194.595,176.492 195.585,175.862 196.300 C 175.233 197.015,174.495 197.600,174.224 197.600 C 173.565 197.600,170.309 201.097,170.727 201.355 C 171.039 201.548,172.965 199.999,173.260 199.318 C 173.337 199.140,174.210 198.372,175.200 197.611 C 176.955 196.263,179.600 193.715,179.600 193.372 C 179.600 193.052,179.310 193.198,178.158 194.100 M167.856 202.834 C 166.106 204.375,165.575 205.200,166.335 205.200 C 166.830 205.200,170.000 202.101,170.000 201.616 C 170.000 200.989,169.864 201.066,167.856 202.834 M163.129 207.004 C 162.100 207.986,161.427 208.893,161.634 209.021 C 161.840 209.148,162.561 208.701,163.235 208.026 C 163.910 207.352,164.638 206.800,164.854 206.800 C 165.070 206.800,165.136 206.620,165.000 206.400 C 164.864 206.180,164.943 206.000,165.176 206.000 C 165.409 206.000,165.600 205.820,165.600 205.600 C 165.600 204.870,165.019 205.200,163.129 207.004 M158.008 211.392 C 157.041 212.377,156.383 213.317,156.547 213.480 C 156.710 213.643,157.011 213.512,157.216 213.188 C 157.420 212.865,157.591 212.726,157.594 212.880 C 157.603 213.280,160.400 210.347,160.400 209.939 C 160.400 209.237,159.713 209.655,158.008 211.392 M153.632 215.215 C 152.166 216.667,151.613 217.600,152.219 217.600 C 152.522 217.600,156.000 214.145,156.000 213.844 C 156.000 213.228,155.130 213.732,153.632 215.215 M149.208 218.992 C 148.241 219.977,147.576 220.909,147.729 221.063 C 147.883 221.216,148.358 220.995,148.785 220.571 C 149.212 220.147,149.795 219.584,150.081 219.319 C 150.843 218.613,151.600 217.665,151.600 217.417 C 151.600 216.840,150.809 217.360,149.208 218.992 M144.607 222.931 C 142.765 224.696,142.461 225.200,143.236 225.200 C 143.647 225.200,147.200 221.780,147.200 221.385 C 147.200 220.809,146.197 221.407,144.607 222.931 M139.600 227.400 C 138.491 228.530,138.064 229.200,138.452 229.200 C 139.009 229.200,142.000 226.348,142.000 225.817 C 142.000 225.239,141.209 225.761,139.600 227.400 M134.865 231.376 C 133.949 232.353,133.348 233.244,133.529 233.356 C 133.825 233.539,137.600 230.230,137.600 229.786 C 137.600 229.101,136.276 229.872,134.865 231.376 M131.400 234.313 C 129.569 235.991,128.622 237.200,129.138 237.200 C 129.704 237.200,132.800 234.156,132.800 233.600 C 132.800 233.048,132.755 233.070,131.400 234.313 M126.380 238.666 C 124.449 240.410,123.478 241.908,124.703 241.252 C 125.623 240.759,128.400 237.950,128.400 237.512 C 128.400 236.962,128.036 237.169,126.380 238.666 M121.799 242.455 C 120.279 243.789,119.323 245.200,119.939 245.200 C 120.409 245.200,123.600 242.021,123.600 241.553 C 123.600 240.983,123.309 241.128,121.799 242.455 M117.531 246.292 C 115.302 248.121,114.188 249.600,115.040 249.600 C 115.324 249.600,119.200 245.685,119.200 245.398 C 119.200 245.021,118.855 245.205,117.531 246.292 M111.677 251.391 C 110.452 252.559,110.027 253.185,110.452 253.191 C 111.031 253.199,114.400 250.306,114.400 249.800 C 114.400 249.187,113.333 249.811,111.677 251.391 M106.985 255.300 C 105.710 256.455,103.754 258.273,102.637 259.340 C 101.520 260.407,100.155 261.514,99.603 261.799 C 98.655 262.290,96.000 264.936,96.000 265.389 C 96.000 265.962,97.121 265.213,98.827 263.500 C 99.869 262.455,100.883 261.600,101.082 261.600 C 101.281 261.600,102.307 260.700,103.361 259.600 C 104.415 258.500,105.424 257.600,105.602 257.600 C 106.085 257.600,109.600 254.096,109.600 253.615 C 109.600 252.969,109.452 253.064,106.985 255.300 M94.600 266.082 C 93.702 266.597,91.616 268.838,91.606 269.300 C 91.593 269.910,92.114 269.556,93.836 267.785 C 95.969 265.589,96.145 265.198,94.600 266.082 M88.537 271.341 C 87.285 272.583,86.144 273.600,86.003 273.600 C 85.688 273.600,83.162 275.935,82.431 276.900 C 81.307 278.387,82.799 277.497,84.947 275.400 C 86.187 274.190,87.353 273.200,87.539 273.200 C 88.060 273.200,89.614 271.748,89.363 271.496 C 89.240 271.373,89.497 271.160,89.933 271.021 C 90.719 270.772,91.405 269.672,91.017 269.283 C 90.906 269.172,89.790 270.098,88.537 271.341 M79.208 279.392 C 78.241 280.377,77.542 281.275,77.654 281.387 C 77.906 281.639,81.600 278.414,81.600 277.942 C 81.600 277.237,80.915 277.652,79.208 279.392 M74.575 283.266 C 73.316 284.427,72.917 285.025,73.261 285.238 C 73.559 285.422,74.054 285.196,74.506 284.672 C 74.919 284.192,75.695 283.305,76.231 282.700 C 77.728 281.011,76.605 281.395,74.575 283.266 M69.878 287.313 C 68.647 288.461,67.316 289.658,66.920 289.974 C 66.199 290.549,63.682 292.721,60.505 295.511 C 59.572 296.330,58.807 297.135,58.805 297.300 C 58.793 298.055,59.822 297.432,61.774 295.500 C 64.035 293.263,65.579 292.000,66.054 292.000 C 66.215 292.000,66.448 291.679,66.573 291.287 C 66.697 290.894,67.333 290.257,67.987 289.872 C 69.695 288.862,72.895 285.706,72.474 285.446 C 72.278 285.324,71.110 286.164,69.878 287.313 M55.533 299.849 C 53.133 302.042,51.992 303.600,52.785 303.600 C 52.983 303.600,54.969 305.327,57.200 307.439 C 59.431 309.550,61.355 311.178,61.477 311.056 C 61.677 310.856,59.779 308.577,58.475 307.453 C 58.186 307.204,57.481 306.505,56.909 305.900 C 56.336 305.295,55.655 304.800,55.396 304.800 C 53.985 304.800,53.050 302.173,54.300 301.723 C 55.205 301.397,58.574 298.041,58.286 297.753 C 58.165 297.632,56.926 298.575,55.533 299.849 M62.000 311.392 C 62.000 311.733,68.102 317.600,68.457 317.600 C 69.089 317.600,68.814 317.253,65.781 314.219 C 63.134 311.572,62.000 310.725,62.000 311.392 M69.200 317.932 C 69.200 318.448,75.053 324.000,75.597 324.000 C 75.862 324.000,75.566 323.397,74.939 322.660 C 74.313 321.923,73.665 321.393,73.500 321.483 C 73.335 321.573,73.200 321.470,73.200 321.254 C 73.200 320.807,69.960 317.611,69.500 317.604 C 69.335 317.602,69.200 317.750,69.200 317.932 M76.320 324.214 C 76.077 324.456,82.174 330.522,82.905 330.765 C 83.597 330.996,82.686 329.870,80.009 327.185 C 77.420 324.589,76.603 323.931,76.320 324.214 M83.600 331.017 C 83.600 331.394,87.314 335.223,88.890 336.471 C 91.442 338.492,90.567 337.005,87.330 333.821 C 84.563 331.099,83.600 330.374,83.600 331.017 M93.013 340.029 C 95.348 342.405,96.699 343.434,97.038 343.096 C 97.343 342.790,91.868 337.600,91.239 337.600 C 90.882 337.600,91.622 338.615,93.013 340.029 M257.692 343.040 C 256.938 343.846,257.056 361.600,257.815 361.600 C 258.311 361.600,258.400 360.239,258.400 352.643 C 258.400 343.029,258.363 343.200,260.456 343.200 C 260.895 343.200,261.134 343.017,260.994 342.789 C 260.656 342.244,258.266 342.425,257.692 343.040 M98.000 343.912 C 98.000 344.399,103.180 349.600,103.665 349.600 C 104.358 349.600,103.935 349.005,101.700 346.834 C 98.824 344.041,98.000 343.391,98.000 343.912 M105.200 350.728 C 105.200 351.267,110.666 356.400,110.944 356.123 C 111.085 355.982,111.200 356.077,111.200 356.333 C 111.200 356.590,111.382 356.800,111.603 356.800 C 111.847 356.800,111.815 356.493,111.523 356.026 C 111.257 355.600,110.896 355.341,110.720 355.449 C 110.544 355.558,110.400 355.493,110.400 355.303 C 110.400 355.114,109.406 353.934,108.192 352.680 C 106.131 350.552,105.200 349.945,105.200 350.728 M112.779 357.500 C 113.335 358.456,113.901 359.077,116.311 361.376 C 119.598 364.513,119.196 363.183,115.843 359.830 C 112.805 356.792,112.020 356.195,112.779 357.500 M344.000 464.415 L 344.000 567.230 342.319 565.615 C 339.889 563.279,339.193 563.627,341.473 566.038 C 345.208 569.988,344.800 582.345,344.800 465.214 C 344.800 396.405,344.666 361.600,344.400 361.600 C 344.134 361.600,344.000 396.138,344.000 464.415 M119.641 363.891 C 121.043 365.684,123.503 368.101,124.938 369.096 C 125.805 369.696,127.613 371.333,128.957 372.733 C 131.358 375.234,132.800 376.348,132.800 375.700 C 132.800 375.203,127.160 369.600,126.659 369.600 C 126.419 369.600,124.957 368.286,123.411 366.680 C 120.803 363.970,118.195 362.041,119.641 363.891 M133.838 376.885 C 135.190 378.456,139.378 382.400,139.694 382.400 C 140.337 382.400,139.909 381.858,136.987 378.974 C 134.224 376.247,132.043 374.800,133.838 376.885 M140.747 383.100 C 141.325 384.178,146.266 388.800,146.840 388.800 C 147.364 388.800,146.436 387.704,143.059 384.336 C 141.076 382.358,140.057 381.813,140.747 383.100 M147.600 389.083 C 147.600 389.493,153.300 395.200,153.709 395.200 C 154.340 395.200,153.941 394.396,152.779 393.325 C 152.108 392.706,151.163 391.777,150.679 391.261 C 149.509 390.011,147.600 388.660,147.600 389.083 M155.406 395.990 C 155.128 396.440,159.319 400.854,160.700 401.565 C 161.195 401.820,161.600 401.940,161.600 401.832 C 161.600 401.291,155.618 395.648,155.406 395.990 M164.925 405.415 C 167.805 408.165,169.939 409.560,168.162 407.529 C 166.259 405.355,162.944 402.417,162.400 402.423 C 162.070 402.426,163.206 403.773,164.925 405.415 M169.409 408.786 C 169.270 409.010,170.283 410.287,171.658 411.625 C 173.941 413.845,175.600 415.115,175.600 414.642 C 175.600 414.098,169.621 408.443,169.409 408.786 M176.400 415.438 C 176.400 415.820,179.662 419.160,181.361 420.517 C 183.653 422.348,182.984 421.224,179.872 418.014 C 177.427 415.492,176.400 414.730,176.400 415.438 M183.447 421.524 C 183.043 422.178,188.741 427.419,189.275 426.885 C 189.555 426.605,189.588 426.400,189.352 426.400 C 189.127 426.400,187.753 425.227,186.299 423.794 C 184.844 422.361,183.561 421.340,183.447 421.524 M191.021 428.883 C 192.521 430.654,196.542 434.400,196.944 434.400 C 197.637 434.400,192.112 428.669,191.022 428.259 C 190.253 427.968,190.253 427.975,191.021 428.883 M197.980 435.162 C 198.557 436.241,204.064 441.200,204.684 441.200 C 204.968 441.200,205.200 441.350,205.200 441.534 C 205.200 441.948,208.318 445.135,209.996 446.437 C 210.679 446.967,212.651 448.795,214.379 450.500 C 216.106 452.205,217.698 453.600,217.915 453.600 C 218.133 453.600,219.712 455.040,221.425 456.800 C 223.137 458.560,224.687 460.000,224.868 460.000 C 225.049 460.000,226.660 461.440,228.449 463.200 C 230.237 464.960,231.880 466.400,232.099 466.400 C 232.894 466.400,227.342 460.733,225.600 459.766 C 225.050 459.460,224.240 458.744,223.800 458.174 C 222.587 456.603,220.778 454.800,220.415 454.800 C 220.238 454.800,218.317 453.090,216.148 451.000 C 213.978 448.910,212.064 447.200,211.894 447.200 C 211.725 447.200,210.163 445.760,208.424 444.000 C 206.685 442.240,204.978 440.800,204.631 440.800 C 204.284 440.800,204.000 440.623,204.000 440.407 C 204.000 440.191,202.983 439.066,201.740 437.907 C 200.498 436.748,199.198 435.485,198.851 435.100 C 198.014 434.168,197.469 434.207,197.980 435.162 M233.200 467.149 C 233.200 467.623,239.100 473.200,239.601 473.200 C 240.277 473.200,240.072 472.907,237.868 470.718 C 234.408 467.280,233.200 466.357,233.200 467.149 M240.400 473.551 C 240.400 473.984,245.138 478.721,246.091 479.241 C 246.631 479.536,246.731 479.485,246.548 479.009 C 246.420 478.674,246.143 478.400,245.934 478.400 C 245.724 478.400,245.664 478.220,245.800 478.000 C 245.936 477.780,245.872 477.600,245.658 477.600 C 245.444 477.600,244.287 476.610,243.087 475.400 C 240.933 473.229,240.400 472.862,240.400 473.551 M247.600 480.015 C 247.600 480.573,251.970 484.983,253.100 485.565 C 254.523 486.297,254.201 485.851,250.986 482.624 C 247.897 479.526,247.600 479.297,247.600 480.015 M257.398 489.566 C 259.157 491.304,260.735 492.640,260.905 492.535 C 261.075 492.430,260.221 491.343,259.007 490.120 C 257.793 488.896,256.800 487.768,256.800 487.612 C 256.800 487.329,255.013 486.397,254.481 486.403 C 254.327 486.405,255.639 487.829,257.398 489.566 M261.600 492.754 C 261.600 493.085,265.946 497.587,267.356 498.716 C 269.157 500.158,267.652 498.030,265.002 495.389 C 262.007 492.403,261.600 492.088,261.600 492.754 M268.813 499.157 C 268.799 499.774,272.721 503.795,274.600 505.089 C 275.260 505.544,277.150 507.283,278.800 508.953 C 280.450 510.624,281.929 511.993,282.087 511.995 C 282.244 511.998,283.504 513.131,284.887 514.514 C 288.066 517.694,289.200 518.636,289.200 518.098 C 289.200 517.596,283.770 512.000,283.283 512.000 C 283.099 512.000,281.412 510.473,279.534 508.608 C 277.655 506.742,276.030 505.303,275.923 505.411 C 275.815 505.518,274.529 504.334,273.064 502.779 C 271.599 501.224,270.400 500.073,270.400 500.221 C 270.400 500.368,270.046 500.064,269.613 499.544 C 269.117 498.949,268.822 498.806,268.813 499.157 M289.856 518.309 C 289.730 518.513,291.061 520.078,292.814 521.789 C 294.566 523.499,296.003 524.741,296.006 524.549 C 296.009 524.357,296.187 524.470,296.400 524.800 C 296.671 525.220,296.790 525.246,296.794 524.887 C 296.797 524.606,296.537 524.274,296.215 524.150 C 295.894 524.027,295.521 523.580,295.386 523.157 C 295.252 522.734,294.975 522.492,294.771 522.618 C 294.567 522.744,294.400 522.661,294.400 522.433 C 294.400 522.206,293.743 521.430,292.940 520.710 C 292.137 519.989,291.166 519.071,290.782 518.670 C 290.398 518.268,289.982 518.106,289.856 518.309 M297.211 525.300 C 297.222 525.820,302.625 531.000,303.155 531.000 C 303.321 531.000,304.503 532.130,305.781 533.510 C 308.156 536.076,310.298 537.836,310.634 537.499 C 310.859 537.274,306.344 532.712,304.497 531.297 C 303.780 530.749,301.938 529.062,300.405 527.550 C 297.503 524.689,297.193 524.470,297.211 525.300 M311.600 538.328 C 311.600 538.672,316.632 543.638,317.500 544.151 C 318.604 544.805,317.858 543.839,315.056 540.992 C 312.212 538.102,311.600 537.630,311.600 538.328 M318.646 544.688 C 318.272 545.061,324.375 550.862,324.840 550.575 C 325.034 550.455,323.830 549.017,322.165 547.379 C 318.864 544.131,319.056 544.277,318.646 544.688 M325.600 551.123 C 325.600 551.511,331.377 557.200,331.771 557.200 C 332.244 557.200,331.275 555.817,329.529 554.000 C 327.691 552.087,325.600 550.556,325.600 551.123 M332.800 557.587 C 332.800 558.052,338.400 563.600,338.870 563.600 C 339.491 563.600,339.196 563.223,336.226 560.213 C 333.259 557.208,332.800 556.856,332.800 557.587 " stroke="none" fill="#4ab0a8" fill-rule="evenodd"></path><path id="path2" d="M347.685 47.584 C 346.465 48.687,346.119 49.220,346.485 49.431 C 346.768 49.595,346.881 49.595,346.734 49.432 C 346.451 49.116,348.994 46.669,350.000 46.290 C 350.533 46.088,350.533 46.061,350.000 46.048 C 349.670 46.040,348.628 46.731,347.685 47.584 M342.443 52.044 C 341.917 52.471,341.573 52.907,341.679 53.013 C 341.785 53.118,342.289 52.843,342.800 52.400 C 344.010 51.351,343.691 51.033,342.443 52.044 M339.190 54.946 C 338.195 55.896,337.115 56.767,336.790 56.882 C 336.466 56.997,336.315 57.216,336.456 57.368 C 336.598 57.521,337.768 56.652,339.056 55.438 C 340.345 54.223,341.310 53.227,341.200 53.224 C 341.090 53.221,340.186 53.996,339.190 54.946 M332.800 60.452 C 331.810 61.342,331.443 61.830,331.985 61.535 C 333.061 60.950,333.516 60.558,334.349 59.498 C 335.196 58.420,334.764 58.687,332.800 60.452 M327.878 64.634 C 327.260 65.165,326.900 65.596,327.078 65.591 C 327.578 65.577,329.412 64.079,329.194 63.861 C 329.087 63.755,328.495 64.103,327.878 64.634 M316.168 74.800 C 314.711 76.120,313.312 77.203,313.060 77.206 C 312.807 77.209,312.870 77.387,313.200 77.600 C 313.530 77.813,313.980 77.988,314.200 77.988 C 314.420 77.988,314.330 77.813,314.000 77.600 C 313.598 77.340,313.566 77.210,313.901 77.206 C 314.177 77.203,315.077 76.451,315.901 75.536 C 316.725 74.621,317.940 73.542,318.600 73.138 C 319.260 72.734,319.579 72.402,319.308 72.401 C 319.037 72.401,317.624 73.480,316.168 74.800 M304.852 84.537 C 304.607 84.832,304.525 85.192,304.670 85.337 C 305.140 85.806,305.428 85.617,305.490 84.800 C 305.561 83.858,305.453 83.814,304.852 84.537 M301.949 87.065 C 301.647 87.430,300.860 88.060,300.200 88.463 C 299.518 88.880,299.268 89.198,299.622 89.199 C 299.963 89.199,300.854 88.570,301.600 87.800 C 302.346 87.030,302.854 86.400,302.727 86.400 C 302.601 86.400,302.251 86.699,301.949 87.065 M294.960 93.117 C 294.076 93.933,293.735 94.285,294.202 93.900 C 294.669 93.515,295.366 93.200,295.749 93.200 C 296.133 93.200,296.345 93.035,296.221 92.834 C 296.097 92.633,296.221 92.388,296.498 92.289 C 296.774 92.190,296.903 92.003,296.784 91.872 C 296.665 91.741,295.844 92.301,294.960 93.117 M291.041 96.427 C 290.183 97.072,289.744 97.600,290.066 97.600 C 290.387 97.600,291.168 97.060,291.800 96.400 C 293.224 94.914,293.045 94.920,291.041 96.427 M281.491 104.564 C 280.813 105.078,280.814 105.110,281.510 105.292 C 282.010 105.423,282.256 105.251,282.294 104.741 C 282.360 103.870,282.394 103.878,281.491 104.564 M276.922 108.624 C 276.105 109.370,276.026 109.539,276.633 109.246 C 277.463 108.845,278.702 107.600,278.271 107.600 C 278.147 107.600,277.540 108.061,276.922 108.624 M268.006 116.382 C 267.459 116.802,267.099 117.224,267.206 117.321 C 267.313 117.417,267.846 117.069,268.392 116.548 C 269.582 115.410,269.382 115.324,268.006 116.382 M263.200 120.393 C 262.095 121.317,261.985 121.517,262.681 121.340 C 263.166 121.217,263.845 120.685,264.191 120.158 C 264.985 118.946,264.907 118.964,263.200 120.393 M256.235 126.438 C 254.063 128.423,253.553 129.200,254.424 129.200 C 254.657 129.200,254.754 129.049,254.640 128.865 C 254.361 128.414,257.156 125.732,258.368 125.287 C 258.937 125.079,259.158 124.821,258.903 124.664 C 258.664 124.516,257.464 125.315,256.235 126.438 M246.954 134.447 C 245.439 135.807,244.147 136.960,244.083 137.010 C 244.018 137.060,244.283 137.223,244.671 137.372 C 245.058 137.521,245.254 137.521,245.106 137.373 C 244.682 136.949,248.486 133.148,249.099 133.383 C 249.397 133.497,249.541 133.428,249.418 133.230 C 249.295 133.031,249.421 132.788,249.698 132.689 C 249.974 132.590,250.089 132.389,249.954 132.242 C 249.819 132.095,248.469 133.087,246.954 134.447 M239.244 141.004 C 238.278 141.772,237.648 142.397,237.844 142.394 C 238.219 142.388,241.545 139.638,241.200 139.619 C 241.090 139.613,240.210 140.236,239.244 141.004 M235.065 144.647 C 234.440 144.986,233.998 145.331,234.082 145.415 C 234.402 145.735,235.954 145.096,236.160 144.561 C 236.418 143.888,236.473 143.884,235.065 144.647 M231.200 148.013 C 229.990 149.101,229.127 149.993,229.283 149.996 C 229.439 149.998,230.519 149.105,231.683 148.012 C 234.422 145.439,234.061 145.440,231.200 148.013 M225.363 153.100 C 224.699 153.705,224.450 153.975,224.809 153.700 C 225.169 153.425,225.655 153.200,225.889 153.200 C 226.123 153.200,226.418 152.930,226.545 152.600 C 226.857 151.787,226.757 151.829,225.363 153.100 M216.523 160.522 C 214.194 162.404,213.708 163.222,215.709 161.894 C 216.789 161.177,219.179 158.747,218.730 158.822 C 218.659 158.834,217.665 159.599,216.523 160.522 M209.721 166.514 C 208.158 167.881,206.955 169.124,207.048 169.274 C 207.140 169.425,208.047 168.660,209.063 167.574 C 210.078 166.489,211.250 165.600,211.667 165.600 C 212.362 165.600,213.126 164.592,212.730 164.197 C 212.638 164.104,211.283 165.147,209.721 166.514 M202.176 173.101 C 201.284 173.925,200.935 174.285,201.402 173.900 C 201.869 173.515,202.422 173.200,202.630 173.200 C 202.837 173.200,203.232 172.840,203.507 172.400 C 204.195 171.298,204.041 171.380,202.176 173.101 M197.600 176.789 C 196.608 177.555,196.608 177.560,197.500 177.495 C 197.995 177.459,198.400 177.213,198.400 176.948 C 198.400 176.683,198.625 176.376,198.900 176.265 C 199.175 176.154,199.220 176.053,199.000 176.040 C 198.780 176.028,198.150 176.365,197.600 176.789 M188.873 184.487 C 188.286 185.074,188.262 185.600,188.824 185.600 C 189.057 185.600,189.145 185.435,189.021 185.234 C 188.897 185.033,189.021 184.788,189.298 184.689 C 189.574 184.590,189.698 184.398,189.573 184.261 C 189.449 184.125,189.134 184.226,188.873 184.487 M185.477 187.380 C 183.822 188.907,183.304 189.611,183.677 189.826 C 183.965 189.992,184.088 190.002,183.951 189.849 C 183.814 189.695,184.714 188.590,185.951 187.393 C 188.845 184.592,188.507 184.583,185.477 187.380 M178.973 193.101 C 178.079 193.925,177.662 194.357,178.048 194.061 C 178.434 193.764,178.927 193.631,179.143 193.765 C 179.360 193.899,179.808 193.467,180.138 192.804 C 180.468 192.142,180.707 191.600,180.669 191.601 C 180.631 191.602,179.868 192.277,178.973 193.101 M175.443 196.105 C 174.806 196.597,173.366 197.824,172.243 198.832 C 171.119 199.840,169.755 200.965,169.211 201.332 C 168.667 201.699,168.431 202.000,168.687 202.000 C 168.943 202.000,169.259 201.828,169.389 201.617 C 169.519 201.407,169.935 201.346,170.313 201.481 C 170.691 201.617,170.874 201.588,170.721 201.418 C 170.389 201.050,173.525 197.600,174.190 197.600 C 174.443 197.600,175.168 197.060,175.800 196.400 C 177.163 194.977,177.037 194.873,175.443 196.105 M164.129 205.900 C 162.820 207.165,162.487 207.525,163.389 206.700 C 164.292 205.875,165.205 205.200,165.419 205.200 C 165.633 205.200,166.032 204.840,166.307 204.400 C 167.087 203.152,166.691 203.424,164.129 205.900 M160.426 208.969 C 159.821 209.698,160.447 210.082,161.096 209.379 C 161.369 209.084,161.434 208.745,161.241 208.626 C 161.048 208.506,160.682 208.661,160.426 208.969 M155.800 212.980 C 154.864 213.742,154.780 213.912,155.420 213.753 C 155.871 213.640,156.457 213.200,156.723 212.774 C 157.345 211.779,157.250 211.800,155.800 212.980 M147.614 220.002 C 146.586 220.905,146.161 221.473,146.614 221.341 C 147.243 221.157,150.047 218.355,149.539 218.417 C 149.463 218.426,148.596 219.140,147.614 220.002 M140.762 225.919 C 139.353 227.200,137.755 228.552,137.211 228.924 C 136.467 229.432,136.389 229.600,136.895 229.600 C 137.265 229.600,138.417 228.693,139.454 227.584 C 140.504 226.461,141.574 225.658,141.870 225.771 C 142.161 225.883,142.400 225.719,142.400 225.407 C 142.400 225.095,142.714 224.664,143.097 224.450 C 143.480 224.235,143.688 223.955,143.559 223.826 C 143.430 223.697,142.172 224.639,140.762 225.919 M133.273 232.487 C 132.686 233.074,132.662 233.600,133.224 233.600 C 133.457 233.600,133.545 233.435,133.421 233.234 C 133.297 233.033,133.421 232.788,133.698 232.689 C 133.974 232.590,134.098 232.398,133.973 232.261 C 133.849 232.125,133.534 232.226,133.273 232.487 M128.660 236.516 C 127.640 237.333,127.606 237.429,128.341 237.429 C 128.792 237.429,129.080 237.347,128.980 237.247 C 128.880 237.147,129.097 236.735,129.461 236.332 C 130.359 235.340,130.037 235.414,128.660 236.516 M123.824 240.590 C 123.039 241.232,122.876 241.518,123.334 241.451 C 123.711 241.396,124.295 240.956,124.632 240.475 C 125.402 239.377,125.289 239.393,123.824 240.590 M119.400 244.404 C 119.180 244.605,118.370 245.336,117.600 246.030 C 116.297 247.203,116.291 247.219,117.511 246.262 C 118.232 245.696,119.048 245.320,119.325 245.427 C 119.618 245.539,119.854 245.281,119.889 244.810 C 119.958 243.902,119.955 243.899,119.400 244.404 M113.600 249.246 C 112.886 249.838,112.809 250.007,113.333 249.837 C 113.736 249.707,114.211 249.600,114.390 249.600 C 114.568 249.600,114.818 249.330,114.945 249.000 C 115.261 248.176,114.788 248.262,113.600 249.246 M101.400 259.853 C 100.080 261.072,99.450 261.850,100.000 261.580 C 100.830 261.174,104.434 257.561,103.952 257.618 C 103.868 257.628,102.720 258.634,101.400 259.853 M95.197 265.256 C 94.160 266.144,94.055 266.325,94.792 265.962 C 95.889 265.421,96.979 264.445,96.745 264.212 C 96.662 264.129,95.966 264.599,95.197 265.256 M91.400 268.650 C 90.681 269.262,90.534 269.505,91.033 269.257 C 91.766 268.893,93.141 267.576,92.749 267.614 C 92.667 267.622,92.060 268.088,91.400 268.650 M86.200 273.052 C 85.320 273.844,84.907 274.276,85.282 274.012 C 85.658 273.747,86.181 273.664,86.444 273.827 C 86.748 274.015,86.819 273.954,86.638 273.662 C 86.481 273.408,86.500 273.200,86.680 273.200 C 86.860 273.200,87.232 272.840,87.507 272.400 C 88.183 271.319,88.056 271.382,86.200 273.052 M81.802 276.798 C 81.403 277.239,81.262 277.600,81.489 277.600 C 81.992 277.600,82.990 276.457,82.721 276.188 C 82.615 276.082,82.202 276.356,81.802 276.798 M78.360 279.718 C 76.495 281.451,75.460 283.428,76.877 282.552 C 77.135 282.393,77.085 282.173,76.743 281.956 C 76.299 281.675,76.309 281.604,76.800 281.565 C 77.130 281.540,78.190 280.637,79.157 279.559 C 81.398 277.059,81.173 277.104,78.360 279.718 M64.200 291.900 C 62.880 293.118,62.095 293.954,62.455 293.758 C 63.297 293.298,66.902 289.966,66.730 289.806 C 66.659 289.740,65.520 290.682,64.200 291.900 M56.146 298.802 C 54.416 300.366,52.775 301.822,52.500 302.039 C 52.225 302.255,52.000 302.604,52.000 302.816 C 52.000 303.389,52.721 303.280,52.871 302.685 C 52.993 302.197,56.831 298.600,58.822 297.107 C 59.330 296.725,59.644 296.311,59.519 296.186 C 59.394 296.061,57.876 297.238,56.146 298.802 M53.669 304.673 C 54.401 305.263,55.462 306.118,56.027 306.573 C 56.592 307.028,56.153 306.545,55.051 305.500 C 53.949 304.455,52.888 303.600,52.693 303.600 C 52.498 303.600,52.937 304.083,53.669 304.673 M60.003 310.604 C 60.659 311.394,62.001 312.141,61.997 311.714 C 61.996 311.541,61.427 311.077,60.733 310.682 C 59.690 310.088,59.564 310.074,60.003 310.604 M66.400 316.173 C 66.400 316.344,66.895 316.869,67.500 317.339 C 68.105 317.809,69.410 318.915,70.400 319.797 L 72.200 321.400 70.600 319.538 C 69.720 318.513,68.832 317.658,68.626 317.638 C 68.420 317.617,67.835 317.209,67.326 316.730 C 66.817 316.252,66.400 316.001,66.400 316.173 M74.529 323.756 C 75.150 324.336,75.856 324.689,76.097 324.540 C 76.361 324.377,76.159 324.128,75.590 323.918 C 75.069 323.725,74.363 323.373,74.022 323.134 C 73.680 322.895,73.908 323.175,74.529 323.756 M77.983 326.500 C 78.964 327.545,79.819 328.400,79.883 328.400 C 80.184 328.400,79.866 328.041,78.100 326.383 L 76.200 324.600 77.983 326.500 M82.108 330.540 C 83.665 332.091,84.231 332.268,83.768 331.060 C 83.629 330.699,83.340 330.513,83.126 330.646 C 82.911 330.779,82.246 330.463,81.648 329.944 C 81.051 329.425,81.258 329.693,82.108 330.540 M90.178 337.755 C 90.850 338.391,92.660 340.117,94.200 341.591 C 95.740 343.065,97.540 344.590,98.200 344.981 L 99.400 345.691 98.326 344.687 C 97.735 344.134,97.360 343.574,97.492 343.441 C 97.625 343.309,97.416 343.200,97.028 343.200 C 96.138 343.200,90.735 338.028,91.066 337.493 C 91.201 337.275,91.061 337.186,90.756 337.296 C 90.450 337.406,89.920 337.294,89.578 337.048 C 89.236 336.802,89.506 337.120,90.178 337.755 M102.203 348.744 C 103.507 350.289,106.214 352.332,105.552 351.272 C 105.253 350.792,104.770 350.400,104.480 350.400 C 104.190 350.400,104.064 350.220,104.200 350.000 C 104.336 349.780,104.223 349.600,103.949 349.600 C 103.676 349.600,102.991 349.195,102.429 348.700 L 101.406 347.800 102.203 348.744 M108.778 354.901 C 110.376 356.638,110.247 356.575,110.553 355.779 C 110.699 355.398,110.626 355.260,110.363 355.423 C 110.128 355.568,109.365 355.173,108.667 354.545 C 107.464 353.459,107.469 353.477,108.778 354.901 M110.832 356.233 C 110.814 356.471,111.549 357.268,112.464 358.003 L 114.128 359.340 113.189 358.070 C 112.672 357.372,112.028 356.800,111.758 356.800 C 111.488 356.800,111.176 356.575,111.065 356.300 C 110.953 356.021,110.849 355.992,110.832 356.233 M115.983 361.300 C 117.641 363.066,118.000 363.384,118.000 363.083 C 118.000 363.019,117.145 362.164,116.100 361.183 L 114.200 359.400 115.983 361.300 M119.020 364.022 C 119.886 364.980,119.964 364.985,119.896 364.079 C 119.866 363.679,119.502 363.333,119.078 363.301 C 118.347 363.246,118.345 363.276,119.020 364.022 M124.800 369.410 C 125.570 370.035,126.728 371.008,127.374 371.573 L 128.549 372.600 127.574 371.359 C 127.038 370.677,126.060 369.781,125.400 369.369 C 123.487 368.174,123.294 368.187,124.800 369.410 M130.000 374.200 C 130.746 374.970,131.447 375.600,131.557 375.600 C 131.667 375.600,131.146 374.970,130.400 374.200 C 129.654 373.430,128.953 372.800,128.843 372.800 C 128.733 372.800,129.254 373.430,130.000 374.200 M132.000 375.959 C 132.000 376.172,132.360 376.460,132.800 376.600 C 133.240 376.740,133.600 377.022,133.600 377.227 C 133.600 377.432,133.802 377.600,134.049 377.600 C 134.352 377.600,134.330 377.398,133.982 376.978 C 133.270 376.121,132.000 375.467,132.000 375.959 M137.600 380.891 C 137.600 381.017,138.719 382.084,140.086 383.260 C 142.321 385.185,142.452 385.249,141.386 383.900 C 140.734 383.075,140.032 382.400,139.826 382.400 C 139.620 382.400,139.035 382.009,138.526 381.530 C 138.017 381.052,137.600 380.764,137.600 380.891 M146.000 388.837 C 146.000 389.037,146.162 389.200,146.359 389.200 C 146.557 389.200,148.132 390.498,149.859 392.084 L 153.000 394.968 150.200 391.949 C 147.606 389.152,146.000 387.963,146.000 388.837 M154.109 396.000 C 155.323 396.955,155.467 396.978,155.467 396.218 C 155.467 395.897,155.317 395.728,155.133 395.841 C 154.950 395.955,154.800 395.857,154.800 395.624 C 154.800 395.391,154.416 395.200,153.946 395.200 C 153.128 395.200,153.135 395.234,154.109 396.000 M160.000 401.338 C 160.000 401.429,160.855 402.189,161.900 403.027 C 162.980 403.893,163.412 404.118,162.900 403.549 C 162.405 402.999,162.000 402.305,162.000 402.008 C 162.000 401.710,161.886 401.580,161.747 401.719 C 161.608 401.858,161.158 401.792,160.747 401.572 C 160.336 401.352,160.000 401.247,160.000 401.338 M167.200 407.874 C 167.200 408.147,168.934 409.570,169.287 409.587 C 169.446 409.594,169.487 409.375,169.380 409.100 C 169.188 408.607,167.200 407.488,167.200 407.874 M174.800 414.758 C 176.010 415.876,177.180 416.779,177.400 416.764 C 177.620 416.749,177.563 416.642,177.274 416.526 C 176.985 416.411,176.580 415.874,176.375 415.334 C 176.170 414.794,175.836 414.454,175.635 414.579 C 175.433 414.703,174.667 414.337,173.934 413.765 C 173.200 413.193,173.590 413.640,174.800 414.758 M181.800 421.297 C 182.460 421.776,184.308 423.423,185.906 424.958 C 188.282 427.238,188.903 427.650,189.306 427.215 C 189.700 426.791,189.695 426.742,189.286 426.974 C 188.955 427.161,187.492 426.046,185.165 423.832 C 183.182 421.944,181.343 420.406,181.079 420.413 C 180.816 420.420,181.140 420.817,181.800 421.297 M189.708 427.931 C 189.371 428.141,189.622 428.475,190.508 428.993 C 191.449 429.544,191.665 429.583,191.303 429.138 C 191.030 428.801,190.940 428.379,191.103 428.199 C 191.267 428.019,191.190 427.992,190.934 428.138 C 190.678 428.285,190.408 428.230,190.334 428.015 C 190.260 427.801,189.979 427.763,189.708 427.931 M195.200 433.290 C 195.200 433.407,196.036 434.189,197.058 435.026 C 198.676 436.352,198.825 436.410,198.212 435.474 C 197.825 434.883,197.318 434.400,197.085 434.400 C 196.853 434.400,196.334 434.102,195.931 433.738 C 195.529 433.374,195.200 433.172,195.200 433.290 M201.200 438.901 C 201.200 438.986,202.401 440.019,203.870 441.196 C 205.613 442.593,206.272 442.969,205.770 442.280 C 205.346 441.700,204.730 441.217,204.400 441.206 C 203.867 441.190,203.867 441.142,204.400 440.777 C 204.933 440.412,204.933 440.379,204.399 440.481 C 204.068 440.544,203.213 440.179,202.499 439.670 C 201.784 439.162,201.200 438.815,201.200 438.901 M208.000 444.889 C 208.000 445.015,209.305 446.261,210.900 447.659 C 212.495 449.056,213.530 449.840,213.201 449.400 C 212.635 448.645,211.770 447.823,210.400 446.741 C 210.070 446.480,209.395 445.905,208.900 445.463 C 208.405 445.022,208.000 444.763,208.000 444.889 M217.442 453.542 C 217.639 453.706,219.240 455.181,221.000 456.819 L 224.200 459.799 221.400 456.765 C 219.860 455.096,218.259 453.621,217.842 453.488 C 217.426 453.354,217.246 453.379,217.442 453.542 M225.400 460.800 C 225.798 461.240,226.274 461.600,226.458 461.600 C 226.642 461.600,226.484 461.240,226.107 460.800 C 225.730 460.360,225.254 460.000,225.049 460.000 C 224.844 460.000,225.002 460.360,225.400 460.800 M230.371 465.312 C 230.672 465.704,231.837 466.784,232.959 467.712 C 234.738 469.183,234.872 469.240,234.000 468.154 C 233.450 467.468,232.768 466.568,232.485 466.154 C 232.202 465.739,232.078 465.625,232.209 465.900 C 232.578 466.674,231.956 466.493,230.838 465.500 C 230.256 464.984,230.057 464.904,230.371 465.312 M238.835 473.043 C 239.107 473.370,239.878 474.028,240.549 474.506 L 241.769 475.375 241.002 474.358 C 240.581 473.799,239.809 473.140,239.289 472.895 C 238.469 472.508,238.408 472.528,238.835 473.043 M245.788 479.337 C 247.321 480.778,248.666 481.868,248.776 481.757 C 248.887 481.647,248.784 481.431,248.548 481.278 C 248.313 481.125,247.904 480.590,247.640 480.089 C 247.376 479.588,246.996 479.279,246.796 479.402 C 246.596 479.526,245.660 478.972,244.716 478.171 C 243.772 477.370,244.254 477.895,245.788 479.337 M252.818 485.729 C 253.138 486.015,254.750 487.493,256.400 489.013 L 259.400 491.777 256.889 489.166 C 255.508 487.731,254.466 486.468,254.573 486.360 C 254.681 486.252,254.199 485.949,253.503 485.686 C 252.458 485.291,252.338 485.299,252.818 485.729 M260.889 492.866 C 260.974 493.122,261.479 493.617,262.011 493.966 L 262.977 494.600 262.189 493.513 C 261.387 492.407,260.606 492.019,260.889 492.866 M268.000 499.102 C 268.000 499.322,268.270 499.726,268.600 500.000 C 268.935 500.278,269.200 500.321,269.200 500.098 C 269.200 499.878,268.930 499.474,268.600 499.200 C 268.265 498.922,268.000 498.879,268.000 499.102 M277.400 508.098 C 282.099 512.577,282.920 513.031,278.632 508.779 C 276.996 507.157,275.764 505.643,275.893 505.415 C 276.022 505.187,275.979 505.136,275.796 505.301 C 275.613 505.467,274.999 505.306,274.432 504.944 C 273.864 504.582,275.200 506.001,277.400 508.098 M282.013 512.300 C 282.019 512.465,282.489 512.938,283.055 513.351 L 284.085 514.101 283.396 513.051 C 282.745 512.057,281.985 511.645,282.013 512.300 M287.600 517.256 C 287.600 517.356,288.905 518.590,290.500 520.000 L 293.400 522.563 291.400 520.364 C 290.300 519.154,289.325 518.218,289.232 518.283 C 289.140 518.348,288.735 518.103,288.332 517.739 C 287.930 517.374,287.600 517.157,287.600 517.256 M296.000 525.200 C 296.770 525.848,297.580 526.369,297.800 526.358 C 298.020 526.346,297.975 526.246,297.700 526.135 C 297.425 526.024,297.200 525.668,297.200 525.343 C 297.200 525.018,297.020 524.864,296.800 525.000 C 296.580 525.136,296.400 525.046,296.400 524.800 C 296.400 524.554,296.220 524.464,296.000 524.600 C 295.780 524.736,295.600 524.657,295.600 524.424 C 295.600 524.191,295.375 524.005,295.100 524.011 C 294.825 524.017,295.230 524.552,296.000 525.200 M300.400 528.925 C 300.400 528.994,300.985 529.579,301.700 530.225 L 303.000 531.400 301.825 530.100 C 300.730 528.888,300.400 528.616,300.400 528.925 M303.200 531.280 C 303.200 531.570,303.571 532.039,304.024 532.322 C 304.781 532.795,304.813 532.772,304.422 532.041 C 303.875 531.020,303.200 530.599,303.200 531.280 M310.069 537.886 C 310.801 538.483,313.084 540.565,315.141 542.511 C 317.199 544.458,318.994 545.939,319.130 545.803 C 319.266 545.668,319.112 545.389,318.788 545.184 C 318.465 544.980,318.357 544.809,318.549 544.806 C 318.741 544.803,318.676 544.532,318.404 544.204 C 318.132 543.877,317.744 543.711,317.542 543.836 C 317.097 544.111,311.705 538.960,311.386 537.955 C 311.261 537.562,310.916 537.334,310.620 537.448 C 310.323 537.561,309.962 537.462,309.817 537.227 C 309.672 536.992,309.370 536.800,309.146 536.800 C 308.922 536.800,309.337 537.289,310.069 537.886 M322.937 549.471 C 323.088 549.730,323.970 550.540,324.899 551.271 L 326.586 552.600 325.649 551.277 C 325.134 550.549,324.612 550.055,324.489 550.178 C 324.366 550.301,323.904 550.086,323.464 549.701 C 323.023 549.315,322.786 549.212,322.937 549.471 M331.350 556.706 C 331.066 556.892,331.485 557.413,332.489 558.123 L 334.076 559.247 332.991 557.823 C 332.394 557.041,331.881 556.403,331.853 556.406 C 331.824 556.409,331.598 556.544,331.350 556.706 M338.128 563.300 C 338.994 564.125,339.905 564.797,340.151 564.794 C 340.411 564.790,340.370 564.642,340.055 564.442 C 339.594 564.151,339.594 564.063,340.055 563.880 C 340.355 563.761,340.160 563.649,339.622 563.632 C 339.084 563.614,338.173 563.195,337.598 562.700 C 337.023 562.205,337.262 562.475,338.128 563.300 " stroke="none" fill="#25aca4" fill-rule="evenodd"></path><path id="path3" d="M104.197 131.000 C 104.197 186.440,104.243 209.061,104.300 181.268 C 104.357 153.475,104.357 108.115,104.300 80.468 C 104.243 52.821,104.197 75.560,104.197 131.000 M344.997 465.000 C 344.997 521.540,345.043 544.729,345.100 516.532 C 345.157 488.335,345.157 442.075,345.100 413.732 C 345.043 385.389,344.997 408.460,344.997 465.000 M104.197 494.200 C 104.197 558.660,104.244 584.970,104.300 552.668 C 104.356 520.365,104.356 467.625,104.300 435.468 C 104.244 403.310,104.197 429.740,104.197 494.200 " stroke="none" fill="#04ac9c" fill-rule="evenodd"></path><path id="path4" d="" stroke="none" fill="#14aca4" fill-rule="evenodd"></path></g></svg>